<?xml version="1.0" encoding="UTF-8"?>
<svg xmlns="http://www.w3.org/2000/svg" xmlns:xlink="http://www.w3.org/1999/xlink" viewBox="0 0 1000 1000">
  <defs>
    <style>
      .cls-1 {
        fill: #fff;
      }

      .cls-2 {
        isolation: isolate;
      }

      .cls-3 {
        fill: url(#linear-gradient);
        mix-blend-mode: multiply;
        opacity: .48;
      }

      .cls-4 {
        fill: #222;
      }

      .cls-5 {
        fill: #ff3b34;
      }
    </style>
    <linearGradient id="linear-gradient" x1="849.69" y1="270.75" x2="463.65" y2="893.73" gradientUnits="userSpaceOnUse">
      <stop offset="0" stop-color="red" stop-opacity="0"/>
      <stop offset=".11" stop-color="#ff0404" stop-opacity=".08"/>
      <stop offset=".35" stop-color="#ff110f" stop-opacity=".3"/>
      <stop offset=".68" stop-color="#ff2521" stop-opacity=".64"/>
      <stop offset="1" stop-color="#ff3b34"/>
    </linearGradient>
  </defs>
  <g class="cls-2">
    <g id="Layer_1" data-name="Layer 1">
      <circle class="cls-4" cx="500" cy="500" r="477.57"/>
      <path class="cls-5" d="M945.03,500c0,245.39-199.64,445.03-445.03,445.03S54.97,745.39,54.97,500,254.61,54.97,500,54.97s445.03,199.64,445.03,445.03Z"/>
      <path class="cls-5" d="M500,10.15C229.46,10.15,10.15,229.46,10.15,500s219.31,489.85,489.85,489.85,489.85-219.31,489.85-489.85S770.54,10.15,500,10.15ZM824.39,824.39c-42.13,42.12-91.19,75.2-145.82,98.31-56.56,23.92-116.64,36.05-178.57,36.05s-122.01-12.13-178.57-36.05c-54.63-23.11-103.69-56.19-145.82-98.31-42.12-42.13-75.2-91.19-98.31-145.82-23.92-56.56-36.05-116.64-36.05-178.57s12.13-122.01,36.05-178.57c23.11-54.63,56.19-103.69,98.31-145.82,42.13-42.12,91.19-75.2,145.82-98.31,56.56-23.92,116.64-36.05,178.57-36.05s122.01,12.13,178.57,36.05c54.63,23.11,103.69,56.19,145.82,98.31,42.12,42.13,75.2,91.19,98.31,145.82,23.92,56.56,36.05,116.64,36.05,178.57s-12.13,122.01-36.05,178.57c-23.11,54.63-56.19,103.69-98.31,145.82Z"/>
      <path class="cls-3" d="M945.03,500c0,245.79-199.24,445.03-445.03,445.03-119.35,0-227.72-46.98-307.64-123.45,71.77,49.6,158.83,78.64,252.67,78.64,245.79,0,445.04-199.25,445.04-445.04,0-126.44-52.73-240.56-137.4-321.57,116.21,80.28,192.36,214.44,192.36,366.39Z"/>
      <path class="cls-1" d="M417.88,582.62c8.48,8.25,12.74,18.68,12.74,31.29,0,15.06-5.35,26.82-16.01,35.31-10.68,8.5-25.24,12.74-43.68,12.74s-32.52-4.97-43.68-14.92c-11.17-9.95-17.72-24.39-19.65-43.32h-128.65v-184.04c3.29,18.99,10.03,35.2,20.19,48.65,15.03,19.9,32.99,34.94,53.86,45.13,20.86,10.2,47.8,20.39,80.8,30.57,22.8,6.8,40.39,12.87,52.77,18.2,12.37,5.34,22.8,12.13,31.3,20.39ZM830.84,409.02c0,29.6-6.8,56.66-20.39,81.16-13.58,24.51-34.45,44.29-62.6,59.32-28.15,15.06-63.08,22.57-104.81,22.57h-77.16v183.43h-133.55c3.07-.7,6.1-1.47,9.08-2.31,11.64-3.26,22.61-7.46,32.89-12.61,28.13-14.07,49.6-32.99,64.41-56.78,14.8-23.77,22.21-50.23,22.21-79.35,0-30.56-7.53-55.56-22.56-74.96-15.05-19.41-32.88-34.21-53.51-44.41-12.28-6.07-26.76-12.31-43.43-18.72-11.33-4.36-23.64-8.79-37-13.31-33-10.66-57.26-20.62-72.79-29.84-15.53-9.21-23.29-22.08-23.29-38.59,0-15.03,4.6-26.56,13.83-34.57,9.21-8.01,21.35-12.01,36.4-12.01,17.46,0,31.77,4.73,42.94,14.19,11.17,9.46,17.22,22.45,18.2,38.94h134.66c-2.43-48.05-20.87-85.53-55.32-112.47-16.65-13.01-35.86-22.9-57.63-29.61-5.65-1.75-11.48-3.29-17.47-4.6h219.1c40.76,0,75.22,7.05,103.36,21.11,28.13,14.08,49.25,33.49,63.33,58.24,14.07,24.75,21.11,53.14,21.11,85.16ZM704.18,409.02c0-20.39-5.81-36.15-17.46-47.31-11.65-11.17-29.37-16.75-53.14-16.75h-67.7v128.11h67.7c23.77,0,41.49-5.57,53.14-16.74,11.65-11.15,17.46-26.94,17.46-47.31Z"/>
    </g>
  </g>
</svg>