<?xml version="1.0" encoding="UTF-8"?>
<svg id="Layer_1" data-name="Layer 1" width="200" xmlns="http://www.w3.org/2000/svg" viewBox="0 0 500 81.89">
  <defs>
    <style>
      .cls-1, .cls-2 {
        stroke-width: 0px;
      }

      .cls-2 {
        fill: red;
      }
    </style>
  </defs>
  <path class="cls-2" d="M50.65,63.97c0,2.59-2.1,4.68-4.68,4.68h-29.12c-.86,0-1.8-.1-2.79-.31-1-.2-1.98-.52-2.95-.95-.97-.43-1.9-.99-2.79-1.68-.89-.68-1.68-1.51-2.36-2.49-.68-.97-1.23-2.1-1.64-3.39-.41-1.29-.61-2.73-.61-4.34v-25.37c0-.86.1-1.8.31-2.79.2-1,.52-1.98.95-2.96.43-.97,1-1.9,1.69-2.79.7-.89,1.53-1.68,2.5-2.36s2.1-1.23,3.37-1.64c1.27-.41,2.71-.61,4.32-.61h29.12c2.59,0,4.68,2.1,4.68,4.68h0c0,2.59-2.1,4.68-4.68,4.68h-29.12c-1.23,0-2.16.32-2.81.97s-.97,1.61-.97,2.88v25.3c0,1.2.33,2.13.99,2.79.66.66,1.59.99,2.79.99h29.12c2.59,0,4.68,2.1,4.68,4.68h0Z"/>
  <path class="cls-1" d="M75.59,64.48c0,2.31-1.87,4.18-4.18,4.18h0c-1.35,0-2.78-.23-4.31-.68-1.53-.46-2.95-1.21-4.27-2.25-1.32-1.05-2.41-2.4-3.28-4.07-.86-1.67-1.3-3.72-1.3-6.14V17.42c0-2.31,1.87-4.18,4.18-4.18h1.01c2.31,0,4.18,1.87,4.18,4.18v38.09c0,1.15.36,2.07,1.08,2.76.72.68,1.62,1.03,2.7,1.03h0c2.31,0,4.18,1.87,4.18,4.18v1.01Z"/>
  <path class="cls-1" d="M123.99,55.51c0,1.61-.2,3.06-.61,4.34-.41,1.29-.95,2.41-1.62,3.39-.67.97-1.45,1.8-2.34,2.49-.89.68-1.82,1.24-2.79,1.68-.97.43-1.96.75-2.96.95-1,.2-1.94.31-2.83.31h-16.9c-1.3,0-2.72-.23-4.25-.68-1.54-.46-2.96-1.21-4.27-2.25-1.31-1.05-2.4-2.4-3.28-4.07-.88-1.67-1.32-3.72-1.32-6.14v-12.68c0-2.4.44-4.44,1.32-6.11.88-1.67,1.97-3.03,3.28-4.07,1.31-1.05,2.73-1.8,4.27-2.25,1.54-.46,2.95-.68,4.25-.68h16.9c2.4,0,4.44.43,6.13,1.3,1.68.86,3.04,1.95,4.07,3.26,1.03,1.31,1.78,2.73,2.25,4.27.47,1.54.7,2.97.7,4.29v12.68ZM114.62,42.89c0-1.3-.32-2.26-.97-2.88-.65-.62-1.59-.94-2.81-.94h-16.83c-1.25,0-2.2.32-2.85.95-.65.64-.97,1.57-.97,2.79v12.68c0,1.23.32,2.16.97,2.81.65.65,1.6.97,2.85.97h16.83c1.27,0,2.22-.32,2.85-.97.62-.65.94-1.59.94-2.81v-12.61Z"/>
  <path class="cls-1" d="M174.54,63.94c0,.67-.12,1.3-.36,1.87-.24.58-.57,1.08-.99,1.5-.42.42-.91.75-1.48.99-.56.24-1.17.36-1.82.36h-21.19c-1.15,0-2.38-.13-3.69-.4-1.31-.26-2.6-.69-3.87-1.28-1.27-.59-2.5-1.33-3.69-2.23-1.19-.9-2.23-1.99-3.12-3.28-.89-1.29-1.6-2.77-2.14-4.45-.54-1.68-.81-3.58-.81-5.69v-16.94c0-2.59,2.1-4.68,4.68-4.68h0c2.59,0,4.68,2.1,4.68,4.68v16.94c0,1.23.21,2.32.63,3.3.42.97.99,1.81,1.71,2.5.72.7,1.57,1.23,2.54,1.6.97.37,2.02.56,3.15.56h16.4v-24.9c0-2.59,2.1-4.68,4.68-4.68h0c2.59,0,4.68,2.1,4.68,4.68v29.55Z"/>
  <path class="cls-1" d="M226.07,55.51c0,1.61-.2,3.06-.61,4.34-.41,1.29-.95,2.41-1.62,3.39-.67.97-1.45,1.8-2.34,2.49-.89.68-1.82,1.24-2.79,1.68-.97.43-1.96.75-2.96.95-1,.2-1.94.31-2.83.31h-16.9c-1.61,0-3.05-.2-4.32-.61-1.27-.41-2.4-.96-3.37-1.64-.97-.68-1.8-1.47-2.49-2.36-.68-.89-1.24-1.82-1.68-2.79s-.75-1.96-.95-2.95c-.2-1-.31-1.93-.31-2.79v-12.68c0-2.4.44-4.44,1.32-6.11.88-1.67,1.97-3.03,3.28-4.07,1.31-1.05,2.73-1.8,4.27-2.25,1.54-.46,2.95-.68,4.25-.68h12.22c2.59,0,4.68,2.1,4.68,4.68h0c0,2.59-2.1,4.68-4.68,4.68h-12.14c-1.25,0-2.2.32-2.85.95-.65.64-.97,1.57-.97,2.79v12.61c0,1.27.32,2.23.95,2.88.64.65,1.57.97,2.79.97h16.9c1.27,0,2.22-.32,2.85-.97.62-.65.94-1.59.94-2.81V17.92c0-2.59,2.1-4.68,4.68-4.68h0c2.59,0,4.68,2.1,4.68,4.68v37.58Z"/>
  <path class="cls-2" d="M285.71,53.45c0,1.85-.23,3.51-.7,4.99-.47,1.48-1.09,2.78-1.86,3.91-.77,1.13-1.67,2.09-2.7,2.88-1.03.79-2.1,1.44-3.21,1.95-1.1.5-2.23.88-3.37,1.12-1.14.24-2.22.36-3.23.36h-31.46c-2.59,0-4.68-2.1-4.68-4.68h0c0-2.59,2.1-4.68,4.68-4.68h31.46c1.8,0,3.2-.53,4.2-1.59,1-1.06,1.49-2.47,1.49-4.25,0-.86-.13-1.66-.4-2.38s-.64-1.35-1.13-1.87c-.49-.53-1.09-.94-1.8-1.23-.71-.29-1.5-.43-2.36-.43h-21.55c-1.51,0-3.15-.27-4.9-.81-1.75-.54-3.38-1.41-4.88-2.61-1.5-1.2-2.75-2.77-3.75-4.72-1-1.95-1.5-4.32-1.5-7.13s.5-5.18,1.5-7.12c1-1.93,2.25-3.51,3.75-4.72,1.5-1.21,3.13-2.09,4.88-2.63,1.75-.54,3.39-.81,4.9-.81h27.21c2.59,0,4.68,2.1,4.68,4.68h0c0,2.59-2.1,4.68-4.68,4.68h-27.21c-1.78,0-3.17.54-4.16,1.62-1,1.08-1.5,2.51-1.5,4.29s.5,3.23,1.5,4.27c1,1.04,2.38,1.57,4.16,1.57h21.62c1.01.02,2.08.16,3.21.41,1.13.25,2.25.64,3.37,1.17,1.12.53,2.18,1.2,3.19,2,1.01.81,1.9,1.77,2.68,2.9.78,1.13,1.4,2.43,1.86,3.89.46,1.47.68,3.12.68,4.97Z"/>
  <path class="cls-1" d="M321.53,39.07h-11.68v24.9c0,2.59-2.1,4.68-4.68,4.68h-.11c-2.59,0-4.68-2.1-4.68-4.68v-24.9h-7.5c-2.59,0-4.68-2.1-4.68-4.68h0c0-2.59,2.1-4.68,4.68-4.68h7.5v-8.04c0-2.59,2.1-4.68,4.68-4.68h.11c2.59,0,4.68,2.1,4.68,4.68v8.04h11.68c2.59,0,4.68,2.1,4.68,4.68h0c0,2.59-2.1,4.68-4.68,4.68Z"/>
  <path class="cls-1" d="M374.97,63.94c0,.67-.12,1.3-.36,1.87-.24.58-.57,1.08-.99,1.5s-.91.75-1.48.99c-.56.24-1.17.36-1.82.36h-21.19c-1.15,0-2.38-.13-3.69-.4-1.31-.26-2.6-.69-3.87-1.28-1.27-.59-2.5-1.33-3.69-2.23s-2.23-1.99-3.12-3.28c-.89-1.29-1.6-2.77-2.14-4.45-.54-1.68-.81-3.58-.81-5.69v-16.94c0-2.59,2.1-4.68,4.68-4.68h0c2.59,0,4.68,2.1,4.68,4.68v16.94c0,1.23.21,2.32.63,3.3s.99,1.81,1.71,2.5c.72.7,1.57,1.23,2.54,1.6.97.37,2.02.56,3.15.56h16.4v-24.9c0-2.59,2.1-4.68,4.68-4.68h0c2.59,0,4.68,2.1,4.68,4.68v29.55Z"/>
  <path class="cls-1" d="M426.5,55.51c0,1.61-.2,3.06-.61,4.34-.41,1.29-.95,2.41-1.62,3.39s-1.45,1.8-2.34,2.49c-.89.68-1.82,1.24-2.79,1.68-.97.43-1.96.75-2.95.95-1,.2-1.94.31-2.83.31h-16.9c-1.61,0-3.05-.2-4.32-.61-1.27-.41-2.4-.96-3.37-1.64s-1.8-1.47-2.49-2.36c-.68-.89-1.24-1.82-1.68-2.79s-.75-1.96-.95-2.95c-.2-1-.31-1.93-.31-2.79v-12.68c0-2.4.44-4.44,1.32-6.11.88-1.67,1.97-3.03,3.28-4.07,1.31-1.05,2.73-1.8,4.27-2.25,1.54-.46,2.95-.68,4.25-.68h12.22c2.59,0,4.68,2.1,4.68,4.68h0c0,2.59-2.1,4.68-4.68,4.68h-12.14c-1.25,0-2.2.32-2.85.95-.65.64-.97,1.57-.97,2.79v12.61c0,1.27.32,2.23.95,2.88.64.65,1.57.97,2.79.97h16.9c1.27,0,2.22-.32,2.85-.97.62-.65.94-1.59.94-2.81V17.92c0-2.59,2.1-4.68,4.68-4.68h0c2.59,0,4.68,2.1,4.68,4.68v37.58Z"/>
  <path class="cls-1" d="M440.72,21.7h-.9c-2.34,0-4.23-1.9-4.23-4.23h0c0-2.34,1.9-4.23,4.23-4.23h.9c2.34,0,4.23,1.9,4.23,4.23h0c0,2.34-1.9,4.23-4.23,4.23ZM440.72,68.66h-.9c-2.34,0-4.23-1.9-4.23-4.23v-30.49c0-2.34,1.9-4.23,4.23-4.23h.9c2.34,0,4.23,1.9,4.23,4.23v30.49c0,2.34-1.9,4.23-4.23,4.23Z"/>
  <path class="cls-1" d="M496.3,55.51c0,1.61-.2,3.06-.61,4.34-.41,1.29-.95,2.41-1.62,3.39s-1.45,1.8-2.34,2.49c-.89.68-1.82,1.24-2.79,1.68-.97.43-1.96.75-2.95.95-1,.2-1.94.31-2.83.31h-16.9c-1.3,0-2.71-.23-4.25-.68-1.54-.46-2.96-1.21-4.27-2.25-1.31-1.05-2.4-2.4-3.28-4.07-.88-1.67-1.32-3.72-1.32-6.14v-12.68c0-2.4.44-4.44,1.32-6.11.88-1.67,1.97-3.03,3.28-4.07,1.31-1.05,2.73-1.8,4.27-2.25,1.54-.46,2.95-.68,4.25-.68h16.9c2.4,0,4.44.43,6.13,1.3,1.68.86,3.04,1.95,4.07,3.26,1.03,1.31,1.78,2.73,2.25,4.27.47,1.54.7,2.97.7,4.29v12.68ZM486.93,42.89c0-1.3-.32-2.26-.97-2.88-.65-.62-1.59-.94-2.81-.94h-16.83c-1.25,0-2.2.32-2.85.95-.65.64-.97,1.57-.97,2.79v12.68c0,1.23.32,2.16.97,2.81s1.6.97,2.85.97h16.83c1.27,0,2.22-.32,2.85-.97.62-.65.94-1.59.94-2.81v-12.61Z"/>
</svg>