<?xml version="1.0" encoding="UTF-8"?>
<svg id="Layer_1" data-name="Layer 1" width="200" xmlns="http://www.w3.org/2000/svg" viewBox="0 0 500 81.89">
  <defs>
    <style>
      .cls-1 {
        stroke-width: 0px;
      }
    </style>
  </defs>
  <path class="cls-1" d="M54.68,71.04H17.98c-.94,0-1.95-.11-3.03-.33-1.08-.22-2.15-.57-3.21-1.04s-2.07-1.08-3.03-1.82-1.82-1.64-2.56-2.7c-.74-1.06-1.34-2.28-1.78-3.68-.44-1.4-.67-2.97-.67-4.72v-27.54c0-.94.11-1.95.33-3.03.22-1.08.57-2.15,1.04-3.21.47-1.06,1.08-2.07,1.84-3.03.76-.96,1.66-1.82,2.72-2.56,1.06-.74,2.28-1.34,3.66-1.78,1.38-.44,2.95-.67,4.7-.67h36.7v10.17H17.98c-1.33,0-2.35.35-3.05,1.06s-1.06,1.75-1.06,3.13v27.47c0,1.3.36,2.32,1.08,3.03.72.72,1.73,1.08,3.03,1.08h36.7v10.17Z"/>
  <path class="cls-1" d="M108.68,56.75c0,1.75-.22,3.32-.66,4.72-.44,1.4-1.03,2.62-1.76,3.68-.73,1.06-1.58,1.96-2.54,2.7-.97.74-1.98,1.35-3.03,1.82-1.06.47-2.13.82-3.21,1.04-1.08.22-2.11.33-3.07.33h-18.35c-1.41,0-2.95-.25-4.62-.74-1.67-.5-3.22-1.31-4.64-2.45-1.42-1.13-2.61-2.61-3.56-4.42-.95-1.81-1.43-4.04-1.43-6.67v-13.77c0-2.61.48-4.82,1.43-6.63.95-1.81,2.14-3.29,3.56-4.42,1.42-1.13,2.97-1.95,4.64-2.44,1.67-.5,3.21-.74,4.62-.74h18.35c2.61,0,4.83.47,6.65,1.41,1.83.94,3.3,2.12,4.42,3.54,1.12,1.42,1.94,2.97,2.45,4.64.51,1.67.76,3.22.76,4.66v13.77ZM98.5,43.06c0-1.41-.35-2.45-1.06-3.13s-1.72-1.02-3.05-1.02h-18.27c-1.36,0-2.39.35-3.09,1.04s-1.06,1.7-1.06,3.03v13.77c0,1.33.35,2.35,1.06,3.05s1.73,1.06,3.09,1.06h18.27c1.38,0,2.41-.35,3.09-1.06.68-.7,1.02-1.72,1.02-3.05v-13.69Z"/>
  <path class="cls-1" d="M155.08,71.04h-10.17v-28.05c0-1.33-.35-2.34-1.06-3.03-.7-.69-1.75-1.04-3.13-1.04h-13.22v32.12h-10.17v-37.25c0-.7.13-1.36.39-1.98.26-.61.63-1.15,1.1-1.6s1.02-.81,1.64-1.08c.63-.26,1.29-.39,2-.39h18.35c1.41,0,2.92.25,4.54.74,1.62.5,3.16,1.29,4.62,2.39v-3.13h13.77c.96,0,1.98.11,3.05.33,1.07.22,2.13.57,3.19,1.04,1.06.47,2.07,1.08,3.03,1.82.97.74,1.81,1.64,2.54,2.7.73,1.06,1.32,2.28,1.76,3.66.44,1.38.67,2.95.67,4.7v28.05h-10.17v-28.05c0-1.33-.33-2.34-1-3.03s-1.69-1.04-3.07-1.04h-9.16c.34,1.25.51,2.61.51,4.07v28.05Z"/>
  <path class="cls-1" d="M228.21,56.75c0,1.75-.22,3.32-.66,4.72-.44,1.4-1.03,2.62-1.76,3.68-.73,1.06-1.58,1.96-2.54,2.7-.97.74-1.98,1.35-3.03,1.82-1.06.47-2.13.82-3.21,1.04s-2.11.33-3.07.33h-27.54v-10.17h27.47c1.38,0,2.43-.35,3.13-1.06s1.06-1.72,1.06-3.05c-.13-2.71-1.5-4.07-4.11-4.07h-15.77c-2.24,0-4.15-.39-5.71-1.17-1.57-.78-2.84-1.76-3.82-2.93-.98-1.17-1.68-2.44-2.11-3.8s-.65-2.62-.65-3.8c0-2.27.4-4.18,1.21-5.73.81-1.55,1.83-2.81,3.05-3.78,1.23-.97,2.56-1.66,3.99-2.09,1.43-.43,2.78-.64,4.03-.64h25v10.17h-24.92c-.52,0-.93.06-1.23.18-.3.12-.52.27-.67.47-.14.2-.23.4-.25.63-.03.22-.04.44-.04.65.03.42.1.74.23.98s.29.4.49.51c.2.1.42.16.67.18.25.01.49.02.72.02h15.77c2.61,0,4.83.47,6.65,1.41,1.83.94,3.3,2.12,4.42,3.54,1.12,1.42,1.94,2.97,2.45,4.64.51,1.67.76,3.22.76,4.66Z"/>
  <path class="cls-1" d="M273.09,38.91h-17.76v32.12h-10.29v-32.12h-13.22v-10.17h13.22v-13.81h10.29v13.81h17.76v10.17Z"/>
  <path class="cls-1" d="M321.01,57.03c0,1.41-.25,2.93-.74,4.56-.5,1.63-1.3,3.14-2.41,4.54-1.11,1.4-2.56,2.56-4.34,3.5-1.79.94-3.96,1.41-6.51,1.41h-18.35c-1.41,0-2.93-.25-4.56-.74-1.63-.5-3.14-1.3-4.54-2.41-1.4-1.11-2.56-2.56-3.5-4.34-.94-1.79-1.41-3.96-1.41-6.51,0-1.41.25-2.93.74-4.58.5-1.64,1.3-3.16,2.41-4.56,1.11-1.4,2.56-2.56,4.34-3.5s3.96-1.41,6.51-1.41h18.35v9.7h-18.35c-1.38,0-2.45.42-3.21,1.27s-1.13,1.9-1.13,3.15c0,1.33.44,2.37,1.31,3.11.87.74,1.91,1.11,3.11,1.11h18.27c1.38,0,2.45-.42,3.21-1.25.76-.83,1.13-1.88,1.13-3.13v-14.2c0-1.33-.41-2.39-1.23-3.17-.82-.78-1.86-1.17-3.11-1.17h-22.34v-9.66h22.34c1.41,0,2.93.25,4.56.74,1.63.5,3.14,1.3,4.54,2.41,1.4,1.11,2.56,2.56,3.5,4.34.94,1.79,1.41,3.96,1.41,6.51v14.28Z"/>
  <path class="cls-1" d="M368.01,38.91h-17.76v32.12h-10.29v-32.12h-13.22v-10.17h13.22v-13.81h10.29v13.81h17.76v10.17Z"/>
  <path class="cls-1" d="M385.03,20.05h-10.17v-9.19h10.17v9.19ZM385.03,71.04h-10.17V28.74h10.17v42.29Z"/>
  <path class="cls-1" d="M440.78,56.75c0,1.75-.22,3.32-.67,4.72-.44,1.4-1.03,2.62-1.76,3.68-.73,1.06-1.58,1.96-2.54,2.7-.97.74-1.98,1.35-3.03,1.82-1.06.47-2.13.82-3.21,1.04-1.08.22-2.11.33-3.07.33h-18.35c-1.41,0-2.95-.25-4.62-.74-1.67-.5-3.21-1.31-4.64-2.45s-2.61-2.61-3.56-4.42-1.43-4.04-1.43-6.67v-13.77c0-2.61.48-4.82,1.43-6.63s2.14-3.29,3.56-4.42c1.42-1.13,2.97-1.95,4.64-2.44,1.67-.5,3.21-.74,4.62-.74h18.35c2.61,0,4.83.47,6.65,1.41s3.3,2.12,4.42,3.54c1.12,1.42,1.94,2.97,2.44,4.64.51,1.67.76,3.22.76,4.66v13.77ZM430.61,43.06c0-1.41-.35-2.45-1.06-3.13-.7-.68-1.72-1.02-3.05-1.02h-18.27c-1.36,0-2.39.35-3.09,1.04s-1.06,1.7-1.06,3.03v13.77c0,1.33.35,2.35,1.06,3.05s1.73,1.06,3.09,1.06h18.27c1.38,0,2.41-.35,3.09-1.06.68-.7,1.02-1.72,1.02-3.05v-13.69Z"/>
  <path class="cls-1" d="M496.3,71.04h-10.17v-23.48c0-1.33-.23-2.52-.68-3.58-.46-1.06-1.08-1.96-1.86-2.72-.78-.76-1.7-1.34-2.76-1.74-1.06-.4-2.2-.61-3.42-.61h-17.8v32.12h-10.17v-37.25c0-.7.13-1.36.39-1.98.26-.61.63-1.15,1.09-1.6.47-.46,1.02-.81,1.64-1.08.63-.26,1.29-.39,1.99-.39h22.93c1.28,0,2.63.14,4.05.43,1.42.29,2.83.75,4.23,1.39,1.4.64,2.73,1.45,3.99,2.43,1.26.98,2.39,2.17,3.37,3.56.98,1.4,1.75,3.01,2.33,4.83.57,1.83.86,3.89.86,6.18v23.48Z"/>
</svg>