<?xml version="1.0" encoding="UTF-8"?>
<svg id="Layer_1" data-name="Layer 1" width="200px" xmlns="http://www.w3.org/2000/svg" viewBox="0 0 500 81.89">
  <defs>
    <style>
      .cls-1 {
        fill: #0f0f0f;
      }

      .cls-1, .cls-2 {
        stroke-width: 0px;
      }

      .cls-2 {
        fill: #d11212;
      }
    </style>
  </defs>
  <path class="cls-1" d="M129.56,68.89V27.8c0-.76.61-1.37,1.37-1.37h50.5c4.56,0,7.91,1.23,10.03,3.7,2.13,2.47,3.19,5.72,3.19,9.75v29.02c0,.76-.61,1.37-1.37,1.37h-8.53c-.76,0-1.37-.61-1.37-1.37v-27.48c0-3.46-1.61-5.19-4.82-5.19h-10.81v32.68c0,.76-.61,1.37-1.37,1.37h-8.53c-.76,0-1.37-.61-1.37-1.37v-32.68h-15.63v32.68c0,.76-.61,1.37-1.37,1.37h-8.53c-.76,0-1.37-.61-1.37-1.37Z"/>
  <path class="cls-1" d="M204.53,69.38l-3.64-41.91c-.05-.56.4-1.05.96-1.05h9.41c.5,0,.92.39.96.89l2.57,32.4,12.06-5.96v-26.36c0-.53.43-.96.96-.96h9.35c.53,0,.96.43.96.96v26.45l12.06,5.87,2.57-32.4c.04-.5.46-.89.96-.89h9.41c.57,0,1.01.48.96,1.05l-3.64,41.91c-.04.5-.46.88-.96.88h-9.55c-.15,0-.29-.03-.42-.1l-17.07-8.25-16.99,8.25c-.13.06-.28.1-.42.1h-9.55c-.5,0-.92-.38-.96-.88Z"/>
  <path class="cls-1" d="M291.32,70.26c-6.95,0-12.37-1.87-16.26-5.6-3.89-3.73-5.83-9.22-5.83-16.47s1.94-12.82,5.83-16.55c3.89-3.73,9.31-5.6,16.26-5.6h14.39c6.95,0,12.37,1.87,16.25,5.6,3.89,3.74,5.83,9.25,5.83,16.55s-1.94,12.74-5.83,16.47c-3.89,3.74-9.31,5.6-16.25,5.6h-14.39ZM291.32,60.57h14.39c3.37,0,5.95-1.01,7.74-3.03,1.79-2.02,2.68-5.14,2.68-9.35s-.89-7.41-2.68-9.44c-1.79-2.02-4.37-3.03-7.74-3.03h-14.39c-3.37,0-5.95,1.01-7.74,3.03-1.79,2.02-2.68,5.17-2.68,9.44s.89,7.33,2.68,9.35,4.37,3.03,7.74,3.03Z"/>
  <path class="cls-1" d="M334.63,69.37V27.32c0-.49.4-.9.9-.9h29.75c4.51,0,7.83,1.23,9.95,3.7,2.13,2.47,3.19,5.72,3.19,9.75v8.21c0,.49-.4.9-.9.9h-9.64c-.49,0-.9-.4-.9-.9v-6.68c0-3.4-1.56-5.11-4.67-5.11h-16.25v33.07c0,.49-.4.9-.9.9h-9.64c-.49,0-.9-.4-.9-.9Z"/>
  <path class="cls-1" d="M384.64,69.65V11.48c0-.34.27-.61.61-.61h10.06c.34,0,.61.27.61.61v16h26.91c4.56,0,8.05,1.15,10.46,3.45,2.41,2.3,3.62,5.58,3.62,9.84,0,6.98-3.11,11.13-9.33,12.46l8.98,16.12c.23.41-.07.91-.53.91h-11.28c-.22,0-.43-.12-.53-.31l-9-16.22h-19.29v15.92c0,.34-.27.61-.61.61h-10.06c-.34,0-.61-.27-.61-.61ZM422.28,36.95h-26.37v7.31h26.37c1.04,0,1.85-.33,2.45-1,.6-.66.89-1.58.89-2.74,0-2.38-1.12-3.57-3.34-3.57Z"/>
  <path class="cls-1" d="M442.74,69.84v-8.84c0-.23.19-.42.42-.42h37.69c2.18,0,3.27-1.32,3.27-3.96s-1.09-3.88-3.27-3.88h-24.65c-4.62,0-8.12-1.14-10.5-3.41-2.39-2.27-3.58-5.55-3.58-9.81s1.21-7.65,3.62-9.98c2.41-2.33,5.9-3.5,10.46-3.5h35.04c.23,0,.42.19.42.42v8.84c0,.23-.19.42-.42.42h-34.5c-2.23,0-3.34,1.18-3.34,3.54,0,1.18.31,2.11.93,2.78s1.43,1.01,2.41,1.01h26.13c4.04,0,7.14,1.14,9.29,3.41,2.15,2.27,3.23,5.57,3.23,9.9s-1.09,7.79-3.27,10.24c-2.18,2.44-5.26,3.66-9.25,3.66h-39.71c-.23,0-.42-.19-.42-.42Z"/>
  <path class="cls-2" d="M93.5,17.65c-14.74,0-26.69,11.95-26.69,26.69s11.95,26.69,26.69,26.69,26.69-11.95,26.69-26.69-11.95-26.69-26.69-26.69ZM93.5,58.57c-7.86,0-14.23-6.37-14.23-14.23s6.37-14.23,14.23-14.23,14.23,6.37,14.23,14.23-6.37,14.23-14.23,14.23Z"/>
  <path class="cls-1" d="M37.98,70.91c-10.8,0-19.06-2.49-24.78-7.48-5.72-4.99-8.59-12.39-8.59-22.2s2.86-17.15,8.59-22.16c5.72-5.02,13.98-7.5,24.78-7.44l28.56.16c.49,0,.88.4.88.88v8.7c0,.49-.4.88-.88.88h-27.66c-7.09,0-12.35,1.5-15.78,4.5-3.43,3-5.15,7.82-5.15,14.48s1.72,11.49,5.15,14.52c3.44,3.03,8.7,4.54,15.78,4.54h28.48c.49,0,.88.4.88.88v8.86c0,.49-.4.88-.88.88h-29.38Z"/>
</svg>