<?xml version="1.0" encoding="UTF-8"?>
<svg id="Layer_1" data-name="Layer 1" width="200" xmlns="http://www.w3.org/2000/svg" viewBox="0 0 500 81.89">
  <defs>
    <style>
      .cls-1, .cls-2 {
        stroke-width: 0px;
      }

      .cls-2 {
        fill: #4739ff;
      }
    </style>
  </defs>
  <path class="cls-2" d="M52.78,67.71s-35.36,0-35.36,0c-1.36,0-2.84-.24-4.45-.72-1.61-.48-3.1-1.26-4.47-2.36-1.37-1.09-2.51-2.51-3.43-4.26-.92-1.75-1.38-3.89-1.38-6.43V18.59c0-.68.13-1.32.38-1.92.25-.6.6-1.13,1.04-1.58.44-.45.96-.8,1.56-1.06.6-.25,1.26-.38,1.96-.38h44.14v9.8s-39.28,0-39.28,0v30.5c0,1.28.34,2.26,1.02,2.94s1.67,1.02,2.98,1.02c0,0,35.29,0,35.29,0v9.8ZM48.33,45.62h-30.87s-.04-.02-.04-.04v-9.8s.02-.04.04-.04h30.87s.04.02.04.04v9.8s-.02.04-.04.04Z"/>
  <path class="cls-1" d="M109.52,26.96c-1.11,3.44-2.4,6.84-3.88,10.18-1.48,3.34-3.19,6.53-5.11,9.56-1.92,3.03-4.07,5.83-6.45,8.41-2.37,2.58-5,4.8-7.88,6.67s-6.01,3.34-9.39,4.41c-3.38,1.07-7.04,1.6-10.99,1.6-.68,0-1.32-.13-1.92-.38-.6-.25-1.13-.6-1.58-1.04-.45-.44-.8-.95-1.06-1.55-.25-.59-.38-1.23-.38-1.9V26.96h9.8v30.65c2.39,0,4.68-.51,6.88-1.55,2.2-1.03,4.28-2.39,6.24-4.09,1.96-1.7,3.78-3.63,5.45-5.79,1.67-2.16,3.16-4.38,4.47-6.65,1.31-2.27,2.42-4.5,3.34-6.69.92-2.19,1.6-4.15,2.05-5.88h10.4Z"/>
  <path class="cls-1" d="M156.87,40.45c0,1.36-.24,2.82-.72,4.39-.48,1.57-1.25,3.03-2.32,4.37s-2.46,2.47-4.18,3.37c-1.72.9-3.81,1.36-6.28,1.36h-17.68v-9.31h17.68c1.33,0,2.36-.41,3.09-1.23.73-.82,1.09-1.83,1.09-3.03,0-1.28-.41-2.29-1.23-3.02-.82-.73-1.8-1.09-2.96-1.09h-17.68c-1.33,0-2.36.41-3.09,1.23-.73.82-1.09,1.83-1.09,3.03v13.68c0,1.31.41,2.32,1.22,3.05.82.73,1.83,1.09,3.04,1.09h17.6v9.35h-17.68c-1.36,0-2.82-.24-4.39-.72-1.57-.48-3.03-1.25-4.37-2.32-1.35-1.07-2.47-2.46-3.37-4.18-.9-1.72-1.36-3.81-1.36-6.28v-13.76c0-1.36.24-2.82.72-4.39.48-1.57,1.25-3.03,2.32-4.37,1.07-1.34,2.46-2.47,4.18-3.37,1.72-.9,3.81-1.36,6.28-1.36h17.68c1.36,0,2.82.24,4.39.72,1.57.48,3.03,1.25,4.37,2.32,1.34,1.07,2.47,2.46,3.37,4.18.9,1.72,1.36,3.81,1.36,6.28Z"/>
  <path class="cls-1" d="M208.63,67.71h-9.8v-22.62c0-1.28-.22-2.43-.66-3.45-.44-1.02-1.04-1.89-1.79-2.62-.75-.73-1.64-1.29-2.66-1.68-1.02-.39-2.12-.58-3.3-.58h-17.15v30.95h-9.8V31.82c0-.68.13-1.31.38-1.9.25-.59.6-1.11,1.06-1.55.45-.44.98-.79,1.58-1.04.6-.25,1.24-.38,1.92-.38h22.09c1.23,0,2.53.14,3.9.41,1.37.28,2.73.72,4.07,1.34,1.34.62,2.63,1.39,3.84,2.34,1.22.94,2.3,2.09,3.24,3.43.94,1.35,1.69,2.9,2.24,4.66.55,1.76.83,3.75.83,5.96v22.62Z"/>
  <path class="cls-1" d="M253.07,36.76h-17.11v30.95h-9.91v-30.95h-12.74v-9.8h12.74v-13.31h9.91v13.31h17.11v9.8Z"/>
  <path class="cls-1" d="M298.91,53.95c0,1.68-.21,3.2-.64,4.54s-.99,2.53-1.7,3.54c-.7,1.02-1.52,1.89-2.45,2.6s-1.9,1.3-2.92,1.75c-1.02.45-2.05.79-3.09,1-1.04.21-2.03.32-2.96.32h-26.54v-9.8h26.46c1.33,0,2.34-.34,3.02-1.02.68-.68,1.02-1.66,1.02-2.94-.13-2.61-1.44-3.92-3.96-3.92h-15.19c-2.16,0-4-.38-5.5-1.13-1.51-.75-2.73-1.7-3.68-2.83-.94-1.13-1.62-2.35-2.04-3.66-.42-1.31-.62-2.53-.62-3.66,0-2.19.39-4.03,1.17-5.52.78-1.49,1.76-2.71,2.94-3.64,1.18-.93,2.46-1.6,3.84-2.02,1.38-.41,2.68-.62,3.88-.62h24.09v9.8h-24.01c-.5,0-.9.06-1.19.17s-.5.26-.64.45c-.14.19-.22.39-.24.6-.03.21-.04.42-.04.62.03.4.1.72.23.94.13.23.28.39.47.49.19.1.4.16.64.17.24.01.47.02.7.02h15.19c2.51,0,4.65.45,6.41,1.36s3.18,2.04,4.26,3.41c1.08,1.37,1.87,2.86,2.36,4.47.49,1.61.73,3.1.73,4.49Z"/>
  <path class="cls-2" d="M355.27,67.71h-35.36c-.9,0-1.88-.11-2.92-.32-1.04-.21-2.07-.55-3.09-1-1.02-.45-1.99-1.04-2.92-1.75s-1.75-1.58-2.47-2.6c-.72-1.02-1.29-2.2-1.72-3.54-.43-1.34-.64-2.86-.64-4.54v-26.54c0-.9.11-1.88.32-2.92.21-1.04.55-2.07,1-3.09.45-1.02,1.04-1.99,1.77-2.92.73-.93,1.6-1.75,2.62-2.47,1.02-.72,2.19-1.29,3.52-1.72,1.33-.43,2.84-.64,4.52-.64h35.36v9.8h-35.36c-1.28,0-2.26.34-2.94,1.02-.68.68-1.02,1.68-1.02,3.02v26.46c0,1.26.35,2.23,1.04,2.92.69.69,1.66,1.04,2.92,1.04h35.36v9.8Z"/>
  <path class="cls-1" d="M405.3,54.21c0,1.36-.24,2.82-.72,4.39-.48,1.57-1.25,3.03-2.32,4.37-1.07,1.35-2.46,2.47-4.18,3.37-1.72.9-3.81,1.36-6.28,1.36h-17.68c-1.36,0-2.82-.24-4.39-.72-1.57-.48-3.03-1.25-4.37-2.32-1.35-1.07-2.47-2.46-3.37-4.18s-1.36-3.81-1.36-6.28c0-1.36.24-2.83.72-4.41.48-1.58,1.25-3.05,2.32-4.39,1.07-1.34,2.46-2.47,4.18-3.37s3.81-1.36,6.28-1.36h17.68v9.35h-17.68c-1.33,0-2.36.41-3.09,1.23-.73.82-1.09,1.83-1.09,3.03,0,1.28.42,2.28,1.26,3s1.84,1.07,3,1.07h17.6c1.33,0,2.36-.4,3.09-1.21.73-.8,1.09-1.81,1.09-3.02v-13.68c0-1.28-.4-2.3-1.19-3.05s-1.79-1.13-3-1.13h-21.53v-9.31h21.53c1.36,0,2.82.24,4.39.72,1.57.48,3.03,1.25,4.37,2.32,1.34,1.07,2.47,2.46,3.37,4.18.9,1.72,1.36,3.81,1.36,6.28v13.76Z"/>
  <path class="cls-1" d="M453.06,53.95c0,1.68-.21,3.2-.64,4.54s-.99,2.53-1.7,3.54c-.7,1.02-1.52,1.89-2.45,2.6s-1.9,1.3-2.92,1.75c-1.02.45-2.05.79-3.09,1-1.04.21-2.03.32-2.96.32h-26.54v-9.8h26.46c1.33,0,2.34-.34,3.02-1.02.68-.68,1.02-1.66,1.02-2.94-.13-2.61-1.44-3.92-3.96-3.92h-15.19c-2.16,0-4-.38-5.5-1.13-1.51-.75-2.73-1.7-3.68-2.83-.94-1.13-1.62-2.35-2.04-3.66-.42-1.31-.62-2.53-.62-3.66,0-2.19.39-4.03,1.17-5.52.78-1.49,1.76-2.71,2.94-3.64,1.18-.93,2.46-1.6,3.84-2.02,1.38-.41,2.68-.62,3.88-.62h24.09v9.8h-24.01c-.5,0-.9.06-1.19.17s-.5.26-.64.45c-.14.19-.22.39-.24.6-.03.21-.04.42-.04.62.03.4.1.72.23.94.13.23.28.39.47.49.19.1.4.16.64.17.24.01.47.02.7.02h15.19c2.51,0,4.65.45,6.41,1.36s3.18,2.04,4.26,3.41c1.08,1.37,1.87,2.86,2.36,4.47.49,1.61.73,3.1.73,4.49Z"/>
  <path class="cls-1" d="M496.3,36.76h-17.11v30.95h-9.91v-30.95h-12.74v-9.8h12.74v-13.31h9.91v13.31h17.11v9.8Z"/>
</svg>