<?xml version="1.0" encoding="UTF-8"?>
<svg id="Layer_1" data-name="Layer 1" xmlns="http://www.w3.org/2000/svg" viewBox="0 0 2000 1485.88">
  <defs>
    <style>
      .cls-1 {
        fill: #0d6efd;
        stroke-width: 0px;
      }
    </style>
  </defs>
  <path class="cls-1" d="M1698.59,745.53c0-385.86-312.73-698.59-698.59-698.59S301.41,359.67,301.41,745.53c0,327.47,225.68,602.54,529.95,678.13v-464.73h-144.08v-213.4h144.08v-91.96c0-237.69,107.52-347.93,341.11-347.93,44.21,0,120.62,8.73,152,17.46v193.2c-16.37-1.64-45.03-2.73-80.77-2.73-114.61,0-158.82,43.39-158.82,156.09v75.86h228.13l-39.3,213.4h-189.11v480.01c346.02-41.75,614-336.2,614-693.41h0Z"/>
</svg>