<?xml version="1.0" encoding="UTF-8"?>
<svg id="Layer_1" data-name="Layer 1" xmlns="http://www.w3.org/2000/svg" xmlns:xlink="http://www.w3.org/1999/xlink" viewBox="0 0 2000 1485.88">
  <defs>
    <style>
      .cls-1 {
        fill: url(#radial-gradient-2);
      }

      .cls-1, .cls-2, .cls-3 {
        stroke-width: 0px;
      }

      .cls-2 {
        fill: url(#radial-gradient);
      }

      .cls-3 {
        fill: #fff;
      }
    </style>
    <radialGradient id="radial-gradient" cx="408.48" cy="94.55" fx="408.48" fy="94.55" r="1725.32" gradientTransform="translate(0 1487.18) scale(1 -1)" gradientUnits="userSpaceOnUse">
      <stop offset=".09" stop-color="#fa8f21"/>
      <stop offset=".78" stop-color="#d82d7e"/>
    </radialGradient>
    <radialGradient id="radial-gradient-2" cx="1261.81" cy="138.19" fx="1261.81" fy="138.19" r="1518.3" gradientTransform="translate(0 1487.18) scale(1 -1)" gradientUnits="userSpaceOnUse">
      <stop offset=".64" stop-color="#8c3aaa" stop-opacity="0"/>
      <stop offset="1" stop-color="#8c3aaa"/>
    </radialGradient>
  </defs>
  <path class="cls-2" d="M665.13,1417.58c-52.56-.59-104.63-10.23-153.92-28.5-35.99-13.3-68.56-34.48-95.31-61.99-27.58-26.7-48.79-59.27-62.06-95.3-18.26-49.29-27.88-101.35-28.46-153.9-4.04-87.37-4.85-113.58-4.85-334.96s.89-247.5,4.81-334.93c.65-52.53,10.28-104.57,28.5-153.85,13.33-36,34.51-68.57,62-95.36,26.72-27.56,59.3-48.75,95.32-62,49.29-18.27,101.36-27.91,153.92-28.5,87.4-4,113.64-4.81,334.91-4.81s247.5.89,334.93,4.81c52.55.64,104.6,10.28,153.89,28.5,36.01,13.27,68.58,34.46,95.31,61.99,27.54,26.74,48.73,59.32,62.02,95.34,18.28,49.29,27.92,101.35,28.51,153.92,4,87.44,4.81,113.62,4.81,334.93s-.81,247.5-4.81,334.93c-.63,52.55-10.28,104.61-28.51,153.9-27.89,72.29-85.03,129.42-157.33,157.29-49.29,18.27-101.35,27.92-153.92,28.51-87.36,4-113.62,4.81-334.93,4.81s-247.5-.77-334.85-4.81"/>
  <path class="cls-1" d="M665.13,1417.58c-52.56-.59-104.63-10.23-153.92-28.5-35.99-13.3-68.56-34.48-95.31-61.99-27.58-26.7-48.79-59.27-62.06-95.3-18.26-49.29-27.88-101.35-28.46-153.9-4.04-87.37-4.85-113.58-4.85-334.96s.89-247.5,4.81-334.93c.65-52.53,10.28-104.57,28.5-153.85,13.33-36,34.51-68.57,62-95.36,26.72-27.56,59.3-48.75,95.32-62,49.29-18.27,101.36-27.91,153.92-28.5,87.4-4,113.64-4.81,334.91-4.81s247.5.89,334.93,4.81c52.55.64,104.6,10.28,153.89,28.5,36.01,13.27,68.58,34.46,95.31,61.99,27.54,26.74,48.73,59.32,62.02,95.34,18.28,49.29,27.92,101.35,28.51,153.92,4,87.44,4.81,113.62,4.81,334.93s-.81,247.5-4.81,334.93c-.63,52.55-10.28,104.61-28.51,153.9-27.89,72.29-85.03,129.42-157.33,157.29-49.29,18.27-101.35,27.92-153.92,28.51-87.36,4-113.62,4.81-334.93,4.81s-247.5-.77-334.85-4.81"/>
  <path class="cls-3" d="M833.15,745.83c0-92.94,75.35-168.27,168.29-168.27,92.94,0,168.27,75.35,168.27,168.29,0,92.94-75.35,168.27-168.29,168.27h-.01c-92.93-.01-168.26-75.36-168.25-168.29M742.17,745.83c0,143.17,116.06,259.23,259.23,259.23,143.17,0,259.23-116.06,259.23-259.23,0-143.17-116.06-259.23-259.23-259.23-143.16,0-259.23,116.04-259.23,259.21v.03M1210.32,476.32c-.01,33.46,27.1,60.59,60.55,60.6,33.46.01,60.59-27.1,60.6-60.55.01-33.46-27.1-60.59-60.55-60.6h0c-33.44.01-60.55,27.11-60.58,60.55M797.48,1156.76c-32.01-.35-63.73-6.21-93.75-17.32-44.03-16.97-78.84-51.77-95.83-95.79-11.11-30.02-16.97-61.74-17.32-93.75-2.45-53.21-2.93-69.2-2.93-204.01s.53-150.76,2.93-204.02c.39-32.01,6.25-63.72,17.32-93.75,16.97-44.05,51.78-78.86,95.83-95.83,30.02-11.11,61.74-16.97,93.75-17.32,53.21-2.45,69.2-2.93,203.96-2.93s150.76.52,204.02,2.94c32.01.39,63.72,6.25,93.75,17.32,44.05,16.97,78.86,51.78,95.83,95.83,11.11,30.02,16.97,61.74,17.32,93.75,2.45,53.29,2.93,69.2,2.93,204.02s-.49,150.76-2.93,204.02c-.37,32.01-6.23,63.72-17.32,93.75-16.99,44.03-51.8,78.82-95.83,95.79-30.02,11.11-61.74,16.97-93.75,17.32-53.21,2.45-69.2,2.93-204.02,2.93s-150.76-.49-203.96-2.93M793.29,244.06c-41.89.82-83.33,8.75-122.57,23.45-67.82,26.22-121.43,79.84-147.66,147.66-14.69,39.24-22.62,80.68-23.45,122.57-2.49,53.82-3.05,71.04-3.05,208.14s.57,154.3,3.05,208.14c.83,41.89,8.75,83.33,23.45,122.57,26.22,67.82,79.84,121.43,147.66,147.66,39.24,14.69,80.68,22.62,122.57,23.45,53.85,2.45,71.04,3.05,208.14,3.05s154.3-.57,208.14-3.05c41.89-.83,83.33-8.76,122.57-23.45,67.82-26.22,121.43-79.84,147.66-147.66,14.71-39.23,22.64-80.68,23.45-122.57,2.45-53.86,3.01-71.04,3.01-208.14s-.57-154.3-3.01-208.14c-.82-41.89-8.75-83.33-23.45-122.57-26.22-67.81-79.82-121.42-147.62-147.66-39.23-14.71-80.68-22.63-122.57-23.45-53.84-2.46-71.04-3.05-208.11-3.05s-154.32.57-208.18,3.05"/>
</svg>