<?xml version="1.0" encoding="UTF-8"?>
<svg id="Layer_1" data-name="Layer 1" xmlns="http://www.w3.org/2000/svg" viewBox="0 0 975.18 158.54">
  <defs>
    <style>
      .cls-1 {
        fill: #000811;
      }

      .cls-1, .cls-2 {
        stroke-width: 0px;
      }

      .cls-2 {
        fill: #0d6efd;
      }
    </style>
  </defs>
  <path class="cls-1" d="M113.15,94.18c-2.34-4.89-5.66-9.1-9.97-12.6-4.32-3.51-9.58-6.44-15.79-8.77-6.22-2.34-13.13-4.53-20.73-6.59-5.85-1.46-10.99-2.84-15.46-4.16-4.46-1.32-8.15-2.78-11.08-4.39-2.92-1.61-5.15-3.48-6.68-5.59-1.53-2.12-2.31-4.79-2.31-8.01,0-5.55,2.05-9.87,6.15-12.93,4.09-3.07,10.31-4.6,18.64-4.6,4.68,0,9.28.58,13.81,1.75,4.53,1.18,8.73,2.61,12.6,4.28,3.87,1.68,7.16,3.4,9.87,5.16,2.7,1.75,4.57,3.14,5.6,4.16l1.78-3.28c6.83-12.54,1.11-28.33-12.26-33.35-.09-.03-.18-.07-.28-.1C77.85,1.72,67.76,0,56.79,0c-7.89,0-15.27,1.06-22.15,3.17-6.86,2.12-12.9,5.23-18.08,9.32-5.19,4.1-9.26,9.21-12.17,15.35C1.46,33.99,0,41,0,48.9c0,6,.91,11.15,2.74,15.47,1.83,4.31,4.57,8.11,8.23,11.4,3.66,3.29,8.23,6.13,13.71,8.55,5.48,2.41,11.95,4.64,19.4,6.69,6.15,1.75,11.7,3.37,16.67,4.83,4.98,1.46,9.21,3.07,12.72,4.82,3.51,1.76,6.21,3.81,8.12,6.15,1.9,2.34,2.85,5.19,2.85,8.55,0,10.67-8.33,16.01-25,16.01-6,0-11.84-.73-17.55-2.2-5.71-1.46-10.9-3.25-15.57-5.37-4.68-2.11-8.73-4.24-12.16-6.35l-7.43-4.59h0c-8.02,15.64-.12,34.82,16.64,40.13.32.1.65.2.98.3,11.41,3.52,22.95,5.27,34.65,5.27,7.59,0,14.88-.84,21.82-2.52,6.94-1.68,13.09-4.34,18.43-8,5.33-3.66,9.57-8.44,12.71-14.36,3.14-5.93,4.72-13.05,4.72-21.39,0-7.16-1.17-13.19-3.51-18.09Z"/>
  <path class="cls-1" d="M211.63,76.75v22.15h31.36v57.9h0c13.81,0,25-11.19,25-25v-55.04h-56.36ZM168.32,42.32c3.87-4.83,8.56-8.62,14.04-11.4,5.48-2.78,11.51-4.17,18.08-4.17,8.33,0,16.05,2.05,23.13,6.15,7.09,4.09,12.61,10.02,16.56,17.76l1.11-.82c13.94-10.29,13.11-31.59-1.78-40.44-.1-.06-.21-.12-.31-.18-10.46-6.15-22.98-9.21-37.6-9.21-10.82,0-20.84,2.08-30.04,6.25-9.21,4.16-17.21,9.79-24.01,16.88-6.8,7.09-12.14,15.35-16.01,24.78-3.87,9.43-5.81,19.49-5.81,30.16,0,11.25,1.94,21.74,5.81,31.46,3.87,9.73,9.14,18.17,15.79,25.33s14.48,12.8,23.47,16.88c8.99,4.1,18.6,6.15,28.84,6.15,13.45,0,25.55-4.12,36.28-12.36v-28.32c-10.26,9.28-21.48,13.91-33.66,13.91-6.57,0-12.69-1.34-18.31-4.05-5.63-2.7-10.49-6.39-14.59-11.07-4.1-4.68-7.31-10.2-9.64-16.56-2.35-6.36-3.52-13.19-3.52-20.51s1.06-13.66,3.19-19.95c2.11-6.29,5.12-11.84,8.99-16.67Z"/>
  <path class="cls-1" d="M372.71,97.15c8.62-3.66,15.46-9.62,20.5-17.88,5.05-8.26,7.57-17.43,7.57-27.52,0-6.29-1.24-12.53-3.73-18.75-2.49-6.21-5.92-11.77-10.31-16.67-4.39-4.89-9.61-8.84-15.68-11.84-6.06-2.99-12.68-4.49-19.84-4.49h-62.88l30.87,26.53h30.04c2.63,0,5.22.62,7.79,1.87,2.55,1.24,4.83,2.99,6.8,5.27,1.97,2.26,3.54,4.93,4.71,8,1.17,3.07,1.76,6.44,1.76,10.08s-.51,6.8-1.53,9.87c-1.03,3.08-2.41,5.74-4.17,8.01-1.75,2.26-3.84,4.05-6.24,5.37-2.41,1.31-5.01,1.97-7.79,1.97h-30.81v26.52h22.69l23.76,39c4.99,8.2,13.9,13.2,23.5,13.2h18.53l-35.52-58.55ZM282.36,4.27v151.43h14.46c8.73,0,15.81-7.08,15.81-15.81V30.29l-30.27-26.02Z"/>
  <path class="cls-2" d="M567.98,33c-2.48-6.21-5.92-11.77-10.31-16.67-4.38-4.89-9.61-8.84-15.67-11.84-6.07-2.99-12.69-4.49-19.85-4.49h-60.09l30.86,26.53h27.26c2.64,0,5.22.55,7.79,1.64,2.55,1.1,4.78,2.75,6.69,4.93,1.9,2.2,3.43,4.87,4.6,8.01s1.76,6.68,1.76,10.63c0,7.75-1.87,13.89-5.6,18.43-3.72,4.53-8.37,6.8-13.92,6.8h-27.96v26.52h29.72c7.15,0,13.74-1.46,19.73-4.38,5.98-2.93,11.1-6.8,15.35-11.63,4.24-4.83,7.53-10.34,9.87-16.56,2.34-6.21,3.51-12.6,3.51-19.19s-1.24-12.53-3.73-18.75ZM456.14,4.32v151.38h11.63c10.29,0,18.63-8.34,18.63-18.63V30.34l-30.27-26.02Z"/>
  <path class="cls-2" d="M674.52,97.15c8.62-3.66,15.47-9.62,20.51-17.88,5.04-8.26,7.56-17.43,7.56-27.52,0-6.29-1.24-12.53-3.72-18.75-2.49-6.21-5.92-11.77-10.31-16.67-4.39-4.89-9.62-8.84-15.68-11.84-6.07-2.99-12.69-4.49-19.85-4.49h-64.5l30.86,26.53h31.68c2.63,0,5.22.62,7.78,1.87,2.56,1.24,4.83,2.99,6.8,5.27,1.97,2.26,3.54,4.93,4.72,8,1.17,3.07,1.75,6.44,1.75,10.08s-.51,6.8-1.53,9.87c-1.02,3.08-2.41,5.74-4.16,8.01-1.76,2.26-3.84,4.05-6.25,5.37-2.41,1.31-5.01,1.97-7.79,1.97h-30.8v26.52h22.69l24.22,39.76c4.7,7.72,13.09,12.44,22.14,12.44h19.43l-35.52-58.55ZM584.18,5.66v150.04h13.98c8.99,0,16.28-7.29,16.28-16.28V31.68l-30.26-26.02Z"/>
  <path class="cls-2" d="M823.61,0c-10.18,0-19.51,5.66-24.22,14.69l-31.39,60.31-.1-.19-14.81,28.68v52.21h30.04v-54.39L839.71,0h-16.1ZM712.23,0h-15.5l53.04,94.93,14.29-27.64-26.5-51.8c-4.86-9.51-14.64-15.49-25.32-15.49Z"/>
  <path class="cls-2" d="M939.65,97.15c8.62-3.66,15.47-9.62,20.51-17.88s7.56-17.43,7.56-27.52c0-6.29-1.24-12.53-3.72-18.75-2.49-6.21-5.92-11.77-10.31-16.67-4.39-4.89-9.62-8.84-15.68-11.84-6.07-2.99-12.69-4.49-19.84-4.49h-62.96l30.87,26.53h30.12c2.63,0,5.22.62,7.78,1.87,2.56,1.24,4.83,2.99,6.8,5.27,1.97,2.26,3.54,4.93,4.72,8,1.17,3.07,1.75,6.44,1.75,10.08s-.51,6.8-1.53,9.87c-1.02,3.08-2.41,5.74-4.16,8.01-1.76,2.26-3.84,4.05-6.25,5.37-2.41,1.31-5.01,1.97-7.79,1.97h-30.8v26.52h22.69l23.54,38.66c5.12,8.41,14.25,13.54,24.1,13.54h18.14l-35.52-58.55ZM849.31,155.7h10.91c10.69,0,19.35-8.66,19.35-19.35V30.34l-30.26-26.02v151.38Z"/>
</svg>