<?xml version="1.0" encoding="UTF-8"?>
<svg id="Layer_1" data-name="Layer 1" width="50" xmlns="http://www.w3.org/2000/svg" viewBox="0 0 84.71 81.89">
  <defs>
    <style>
      .cls-1 {
        fill: #e5151f;
      }

      .cls-1, .cls-2, .cls-3 {
        stroke-width: 0px;
      }

      .cls-3 {
        fill: #fff;
      }
    </style>
  </defs>
  <rect class="cls-1" width="84.71" height="81.89"/>
  <path class="cls-3" d="M70.39,23.1c.03-.38.06-.76.06-1.15,0-9.22-7.47-16.69-16.69-16.69-6.26,0-11.71,3.45-14.57,8.55-2.02-.86-4.23-1.35-6.57-1.35-6.74,0-12.54,4-15.17,9.76-7.82,1.38-13.77,8.2-13.77,16.42,0,9.22,7.47,16.69,16.69,16.69h43.95c9.22,0,16.69-7.47,16.69-16.69,0-7.08-4.41-13.11-10.63-15.54Z"/>
  <g>
    <path class="cls-2" d="M25.68,39.11c-1.58,6.08-6.41,9.81-14.02,10.88l-.37-.71c6.47-1.7,10.31-5.35,11.42-10.49h-4.56c-1.55,1.91-3.46,3.34-5.8,4.4l-.54-.52c2.63-1.76,4.79-5.25,5.48-8.19l2.86.81c-.41.93-.81,1.82-1.43,2.68h6.95v1.14Z"/>
    <path class="cls-2" d="M41.63,41.05c-.81,4.56-5.16,8.11-11.8,8.92l-.27-.71c5.25-1.45,8.02-4.5,8.91-8.19h-10.2v-.97h13.37v.95ZM29.42,36.85v-.93h11.11v.93h-11.11Z"/>
    <path class="cls-2" d="M47.62,49.26c5.49-1.47,7.65-4.64,7.65-10.16h-7.8v4.89h-2.7v-5.7h4.98v-3.38h2.84v3.38h5.54v1.35c0,5.52-3.36,9.21-10.16,10.26l-.35-.64Z"/>
    <path class="cls-2" d="M71.47,45.08c-1.87-1.91-4-3.3-5.85-4.23v9.1h-2.72v-15.07h2.72v5.1c2.61.6,4.89,1.37,7.36,2.72l-1.51,2.38ZM70.17,38.61c-.48-1.35-.98-2.43-1.56-3.21l.41-.33c1.01.62,1.95,1.22,2.68,2.12l-1.53,1.41ZM72.1,37.2c-.54-1.22-1.12-2.12-1.82-2.88l.41-.37c.89.44,1.8.91,2.72,1.68l-1.31,1.56Z"/>
  </g>
  <g>
    <path class="cls-3" d="M25.69,71.59c-.1.57-.22,1.15-.33,1.7-.47,2.09-1.09,3.35-3.3,3.35-1.12,0-2.66-.33-4.79-1.02v-.74c1.47.37,2.49.57,3.25.57,1.37,0,1.8-.66,2.21-2.25.14-.51.24-1.06.33-1.6h-11.76v-.8h11.89c.16-.96.23-1.88.25-2.54h-6.95c-.16.49-.31,1-.49,1.51l-2.27-.65c1.43-3.81,1.78-7.18,1.78-7.18l2.43.49s-.14.72-.41,1.88h9.21v.74h-9.39c-.17.72-.39,1.56-.64,2.46h9.43c-.08,1.08-.18,2.19-.33,3.29h3.07v.8h-3.19ZM24.77,63.82c.45-.88.65-1.76.74-2.86h-10.97v2.88h-2.45v-3.6h16.24v1.25c-.68,1.02-1.8,2-3.03,2.7l-.53-.37Z"/>
    <path class="cls-3" d="M49.98,75.58c-2.35-.57-4.81-2.39-6.47-4.36v5.42h-2.39v-5.26c-1.56,1.9-4.26,3.58-7.28,4.21l-.23-.49c2.25-1.13,4.05-2.7,5.22-4.5h-4.73v-.7h7.02v-1.19h2.39v1.19h7.04v.7h-6.77c2.31,1.43,4.62,2.17,7.37,2.41l-1.17,2.58ZM34.26,66.39c1.6-.47,2.97-.98,4.46-1.84l.29.43c-.92,1.47-2.15,2.9-3.35,3.97l-1.41-2.56ZM36.84,64.39c-.68-1.47-1.37-2.5-2.21-3.46l.29-.39c1.23.45,2.66,1.1,3.81,1.86l-1.9,2ZM39.19,68.26v-7h1.68c.18-.65.28-1.45.29-2.23l2.91.53c-.68.74-1.41,1.27-2.15,1.7h3.58v7h-6.32ZM43.31,61.97h-1.94v2.29h1.94v-2.29ZM43.31,64.96h-1.94v2.6h1.94v-2.6ZM48.5,68.77c-.74-1.37-1.68-2.72-2.7-3.81l.29-.43c1.66.47,2.93,1.1,4.42,1.92l-2.01,2.33ZM46.15,63.71c.76-.96,1.27-1.96,1.72-3.27l2.56,1.56c-1.33.98-2.7,1.68-3.95,2.07l-.33-.37Z"/>
    <path class="cls-3" d="M59.56,61.48v4.15c0,4.73-.37,7.45-3.31,11.01l-.45-.39c1.09-2.7,1.43-6.12,1.43-10.62v-4.85h7.06v-1.72h2.44v1.72h6.44v.7h-13.61ZM67.44,73.8v2.84h-2.27v-2.84h-5.91v-.7h5.91v-1.66h-4.19v-6.08h4.19v-1.43h-5.01v-.7h5.01v-1.31h2.27v1.31h5.28v.7h-5.28v1.43h4.32v6.08h-4.32v1.66h5.97v.7h-5.97ZM65.17,66.05h-2.07v1.94h2.07v-1.94ZM65.17,68.69h-2.07v2.04h2.07v-2.04ZM69.65,66.05h-2.21v1.94h2.21v-1.94ZM69.65,68.69h-2.21v2.04h2.21v-2.04Z"/>
  </g>
</svg>