<?xml version="1.0" encoding="UTF-8"?>
<svg id="Layer_1" data-name="Layer 1" xmlns="http://www.w3.org/2000/svg" viewBox="0 0 2000 1485.88">
  <defs>
    <style>
      .cls-1 {
        fill: red;
        stroke-width: 0px;
      }
    </style>
  </defs>
  <path class="cls-1" d="M1880.83,298.99c-21.2-79.77-83.47-142.37-162.57-163.58-143.38-38.71-718.26-38.71-718.26-38.71,0,0-574.88,0-718.26,38.71-79.1,21.2-141.36,83.81-162.57,163.58-38.37,144.39-38.37,445.3-38.37,445.3,0,0,0,300.9,38.37,445.3,21.2,79.77,83.47,139.68,162.57,160.89,143.38,38.71,718.26,38.71,718.26,38.71,0,0,574.88,0,718.26-38.71,79.1-21.2,141.36-81.45,162.57-160.89,38.37-144.39,38.37-445.3,38.37-445.3,0,0,0-300.9-38.37-445.3ZM812.19,1017.59V470.98l480.3,273.3s-480.3,273.3-480.3,273.3Z"/>
</svg>